<svg width="147" height="147" viewBox="0 0 147 147" fill="none" xmlns="http://www.w3.org/2000/svg">
<path d="M69.3701 69.3901L63.3901 83.92L77.9201 77.9401C77.9801 77.9001 78.0201 77.8401 78.1001 77.7701C78.1401 77.7101 78.2001 77.65 78.2501 77.61L84.2301 63.0801L69.7001 69.0601C69.7001 69.0601 69.4101 69.3301 69.3701 69.3901Z" fill="black"/>
<path d="M73.81 0.459961C33.54 0.459961 0.780029 33.2199 0.780029 73.4899C0.780029 113.76 33.54 146.52 73.81 146.52C114.08 146.52 146.84 113.76 146.84 73.4899C146.84 33.2199 114.08 0.459961 73.81 0.459961ZM105.44 44.59L89.7 82.8199C88.65 85.3799 85.7 88.3299 83.14 89.3799L44.93 105.12C42.37 106.17 41.13 104.93 42.19 102.38L57.93 64.1699C58.98 61.6099 61.93 58.6399 64.49 57.6099L102.72 41.8499C105.28 40.8199 106.5 42.04 105.44 44.59Z" fill="black"/>
</svg>
