<svg width="158" height="147" viewBox="0 0 158 147" fill="none" xmlns="http://www.w3.org/2000/svg">
<path d="M153.83 60.35L83.15 1.28L82.82 1.06C82.09 0.62 81.34 0.31 80.59 0.14L80.48 0.07H80.22C80.13 0.06 80.03 0.05 80 0.05L79.7 0.02C79.61 0.02 79.51 0 79.4 0H79.26C79.16 0 79.07 0 78.91 0.02C78.82 0.02 78.74 0.02 78.7 0.04L78.08 0.13C77.34 0.29 76.62 0.58 75.78 1.07L75.55 1.21L4.79 60.35C0.399999 63.23 0.569999 66.43 1.06 68.06C1.45 69.45 2.97 72.67 8.68 72.67H11.44C12.26 72.67 13.16 73.47 13.23 74.26C13.97 81.66 15.14 93.39 16.27 104.59C17.76 119.45 19.3 134.81 19.34 135.31L19.38 135.58C20.07 141.37 25.32 146.06 31.15 146.06H74.3V100.48H84.34V146.06H127.48C133.36 146.06 138.65 141.3 139.27 135.41C139.34 134.53 144.97 78.26 145.38 74.25C145.45 73.48 146.37 72.67 147.17 72.67H149.96C155.68 72.67 157.2 69.45 157.58 68.07C158.06 66.41 158.2 63.2 153.83 60.35Z" fill="black"/>
</svg>
