<svg width="128" height="147" viewBox="0 0 128 147" fill="none" xmlns="http://www.w3.org/2000/svg">
<path d="M121.07 0.399902H7.21985C3.59985 0.399902 0.649902 3.33989 0.649902 6.94989V106.09C0.649902 109.7 3.59985 112.64 7.21985 112.64H40.8099L58.5499 142.35C59.5399 143.96 59.8299 144.34 60.0299 144.57C61.5199 146.27 63.4498 146.46 64.2098 146.46C64.7098 146.46 65.2099 146.39 65.6299 146.25C67.7299 145.67 68.6898 144.05 69.7098 142.34L87.4899 112.64H121.08C124.7 112.64 127.65 109.7 127.65 106.09V6.94989C127.65 3.33989 124.7 0.399902 121.08 0.399902H121.07ZM95.4598 59.1999C95.4598 60.4799 94.4099 61.5299 93.1299 61.5299H35.1299C33.8499 61.5299 32.7999 60.4799 32.7999 59.1999V53.8399C32.7999 52.5599 33.8499 51.5099 35.1299 51.5099H93.1299C94.4199 51.5099 95.4598 52.5599 95.4598 53.8399V59.1999Z" fill="black"/>
</svg>
