<svg width="212" height="145" viewBox="0 0 212 145" fill="none" xmlns="http://www.w3.org/2000/svg">
<path d="M43.17 0.77002H168.17C184.27 0.77002 197.34 13.84 197.34 29.94V114.87C197.34 130.97 184.27 144.04 168.17 144.04H43.17C27.07 144.04 14 130.97 14 114.87V29.94C14 13.84 27.07 0.77002 43.17 0.77002Z" fill="black"/>
<path d="M14 114.88V29.95C14 13.84 27.06 0.780029 43.17 0.780029H29.17C13.06 0.780029 0 13.84 0 29.95V114.88C0 130.99 13.06 144.05 29.17 144.05H43.17C27.06 144.05 14 130.99 14 114.88Z" fill="#20D8E5"/>
<path d="M139.17 69.6401V75.0201C139.17 76.3001 138.12 77.3501 136.84 77.3501H110.7V103.48C110.7 104.76 109.65 105.81 108.37 105.81H102.99C101.71 105.81 100.66 104.76 100.66 103.48V77.3501H74.5399C73.2599 77.3501 72.21 76.3001 72.21 75.0201V69.6401C72.21 68.3601 73.2599 67.3101 74.5399 67.3101H100.66V41.1801C100.66 39.9001 101.71 38.8501 102.99 38.8501H108.37C109.65 38.8501 110.7 39.9001 110.7 41.1801V67.3101H136.84C138.12 67.3101 139.17 68.3601 139.17 69.6401Z" fill="white"/>
<path d="M182.17 0.77002H168.17C184.28 0.77002 197.34 13.83 197.34 29.94V114.87C197.34 130.98 184.28 144.04 168.17 144.04H182.17C198.28 144.04 211.34 130.98 211.34 114.87V29.94C211.34 13.83 198.28 0.77002 182.17 0.77002Z" fill="#F22A72"/>
</svg>
