<svg width="125" height="147" viewBox="0 0 125 147" fill="none" xmlns="http://www.w3.org/2000/svg">
<path d="M62.4001 73.9C82.5401 73.9 98.9302 57.5 98.9302 37.35C98.9302 17.2 82.5401 0.77002 62.4001 0.77002C42.2601 0.77002 25.8301 17.18 25.8301 37.35C25.8301 57.52 42.2401 73.9 62.4001 73.9Z" fill="black"/>
<path d="M62.4001 83.1001C62.4001 83.1001 62.4001 83.1001 62.3901 83.1001C28.3101 83.1101 0.580078 110.82 0.580078 144.89C0.580078 144.89 0.580117 146.06 1.62012 146.06H123.18C124.22 146.06 124.22 144.89 124.22 144.89C124.22 110.83 96.5002 83.1201 62.4102 83.1101L62.4001 83.1001Z" fill="black"/>
</svg>
