<svg width="147" height="147" viewBox="0 0 147 147" fill="none" xmlns="http://www.w3.org/2000/svg">
<path d="M102.72 42.2502L64.49 58.0102C61.93 59.0402 58.98 62.0101 57.93 64.5701L42.19 102.78C41.14 105.34 42.38 106.58 44.93 105.52L83.14 89.7802C85.7 88.7302 88.65 85.7801 89.7 83.2201L105.44 44.9902C106.49 42.4302 105.27 41.2102 102.72 42.2502ZM78.25 78.0102C78.25 78.0102 78.15 78.1102 78.1 78.1702C78.02 78.2302 77.98 78.2901 77.92 78.3401L63.39 84.3201L69.37 69.7902C69.41 69.7302 69.66 69.5001 69.7 69.4601L84.23 63.4801L78.25 78.0102Z" fill="#939598"/>
<path d="M73.81 0.870117C33.54 0.870117 0.780029 33.6301 0.780029 73.9001C0.780029 114.17 33.54 146.93 73.81 146.93C114.08 146.93 146.84 114.17 146.84 73.9001C146.84 33.6301 114.08 0.870117 73.81 0.870117ZM73.81 136.91C39.07 136.91 10.81 108.65 10.81 73.9102C10.81 39.1702 39.07 10.9102 73.81 10.9102C108.55 10.9102 136.81 39.1702 136.81 73.9102C136.81 108.65 108.55 136.91 73.81 136.91Z" fill="#939598"/>
</svg>
