<svg width="158" height="147" viewBox="0 0 158 147" fill="none" xmlns="http://www.w3.org/2000/svg">
<path d="M153.23 62.16L82.58 3.10999L82.31 2.93005C81.69 2.56005 81.05 2.29001 80.41 2.14001C80.37 2.14001 80.29 2.11998 80.25 2.09998C80.17 2.09998 80.11 2.07996 80.02 2.07996C79.93 2.07996 79.88 2.06006 79.81 2.06006C79.71 2.06006 79.6 2.04004 79.48 2.04004H79.34C79.21 2.04004 79.11 2.06006 78.99 2.06006C78.93 2.06006 78.87 2.07996 78.78 2.07996C78.69 2.07996 78.66 2.09998 78.57 2.09998C78.51 2.11998 78.45 2.14001 78.41 2.14001C77.75 2.28001 77.13 2.55005 76.49 2.93005L76.26 3.06995L5.57 62.16C1.98 64.49 1.77 66.97 2.27 68.62C2.66 70.02 4.02 72.37 8.77 72.37H11.53C12.95 72.37 14.36 73.63 14.48 75.01C16.25 92.84 20.57 135.69 20.59 136.13L20.61 136.19C21.17 141.47 25.91 145.76 31.24 145.76H127.57C132.87 145.76 137.64 141.47 138.2 136.19C138.24 135.63 143.87 79.33 144.31 75.01C144.43 73.63 145.86 72.37 147.26 72.37H150.05C154.78 72.37 156.16 70.02 156.55 68.62C157.03 66.97 156.84 64.5 153.23 62.16ZM127.58 138.07H83.26V102.52H75.56V138.07H31.24C29.83 138.07 28.43 136.79 28.27 135.43L20.94 59.36L79.39 10.5L137.86 59.36L130.51 135.43C130.37 136.79 128.94 138.07 127.56 138.07H127.58Z" fill="#939598"/>
<path d="M127.59 146.93H31.26C25.42 146.93 20.17 142.24 19.49 136.45L19.45 136.18C19.41 135.68 17.87 120.32 16.38 105.46C15.26 94.2501 14.08 82.5301 13.34 75.1301C13.27 74.3401 12.37 73.5402 11.55 73.5402H8.79C3.07 73.5402 1.55001 70.3202 1.17001 68.9302C0.680008 67.3002 0.510004 64.1001 4.9 61.2201L75.66 2.08008L75.89 1.94006C76.73 1.45006 77.44 1.16012 78.19 1.00012L78.81 0.910156C78.81 0.910156 78.93 0.890137 79.02 0.890137C79.18 0.880137 79.27 0.870117 79.37 0.870117H79.51C79.62 0.870117 79.72 0.870137 79.81 0.890137L80.11 0.920166C80.11 0.920166 80.24 0.920063 80.33 0.940063H80.59L80.7 1.01013C81.45 1.18013 82.2 1.49018 82.93 1.93018L83.26 2.15015L153.94 61.2201C158.31 64.0701 158.17 67.2801 157.69 68.9401C157.3 70.3201 155.79 73.5402 150.07 73.5402H147.28C146.48 73.5402 145.56 74.3501 145.49 75.1201C145.09 79.1301 139.46 135.41 139.38 136.28C138.76 142.17 133.47 146.93 127.59 146.93ZM21.76 135.89L21.79 136.06C22.29 140.76 26.53 144.59 31.26 144.59H127.59C132.31 144.59 136.56 140.76 137.06 136.06C137.1 135.52 142.76 78.9601 143.17 74.8901C143.34 72.9301 145.27 71.2001 147.28 71.2001H150.07C154.04 71.2001 155.14 69.3802 155.45 68.3002C155.99 66.4302 155.03 64.7001 152.62 63.1401L152.5 63.0602L81.85 4.01013L81.67 3.89014C81.22 3.62014 80.72 3.41017 80.24 3.30017C80.17 3.30017 80.1 3.27013 80.03 3.26013H79.99C79.93 3.26013 79.84 3.2501 79.75 3.2301C79.75 3.2301 79.66 3.23009 79.57 3.22009H79.44H79.29C79.2 3.22009 79.11 3.24011 79 3.24011C79 3.24011 78.92 3.26013 78.83 3.26013C78.77 3.28013 78.69 3.30018 78.61 3.31018C78.13 3.42018 77.64 3.63007 77.08 3.95007L76.96 4.03015L6.22001 63.1602C3.83001 64.7102 2.86 66.4902 3.4 68.3002C3.78 69.6402 5.01001 71.2201 8.78001 71.2201H11.54C13.56 71.2201 15.48 72.9502 15.65 74.9302C16.39 82.3202 17.56 94.0401 18.68 105.25C20.67 125.05 21.61 134.51 21.74 135.92L21.76 135.89ZM127.59 139.23H82.1V103.68H76.74V139.23H31.26C29.3 139.23 27.37 137.52 27.13 135.56L19.74 58.8501L79.41 8.97009L139.1 58.8501L139.04 59.4601L131.69 135.53C131.48 137.51 129.56 139.23 127.58 139.23H127.59ZM84.44 136.9H127.59C128.38 136.9 129.3 136.08 129.38 135.3L136.67 59.8501L79.42 12.0101L22.19 59.8501L29.46 135.31C29.55 136.08 30.47 136.9 31.27 136.9H74.42V101.35H84.45V136.9H84.44Z" fill="#939598"/>
</svg>
