<svg width="128" height="147" viewBox="0 0 128 147" fill="none" xmlns="http://www.w3.org/2000/svg">
<path d="M121.07 113.05C124.69 113.05 127.64 110.11 127.64 106.5V7.35999C127.64 3.74999 124.69 0.810059 121.07 0.810059H7.21985C3.59985 0.810059 0.649902 3.74999 0.649902 7.35999V106.5C0.649902 110.11 3.59985 113.05 7.21985 113.05H40.8099L58.5499 142.76C59.5399 144.37 59.8299 144.75 60.0299 144.98C61.5199 146.68 63.4498 146.87 64.2098 146.87C64.7098 146.87 65.2099 146.8 65.6299 146.66C67.7299 146.08 68.6898 144.46 69.7098 142.75L87.4899 113.05H121.08H121.07ZM117.59 10.83V103.01H86.1599C83.5799 103.01 80.8599 104.56 79.5499 106.78L64.1299 132.53L48.7399 106.77C47.3599 104.52 44.6898 103.01 42.0898 103.01H10.6599V10.83H117.6H117.59Z" fill="#939598"/>
<path d="M35.12 51.9199H93.12C94.41 51.9199 95.45 52.9699 95.45 54.2499V59.6099C95.45 60.8999 94.4 61.9398 93.12 61.9398H35.12C33.83 61.9398 32.79 60.8899 32.79 59.6099V54.2499C32.79 52.9599 33.84 51.9199 35.12 51.9199Z" fill="#939598"/>
</svg>
