<svg width="125" height="146" viewBox="0 0 125 146" fill="none" xmlns="http://www.w3.org/2000/svg">
<path d="M62.4001 73.3002C82.5401 73.3002 98.9302 56.9001 98.9302 36.7501C98.9302 16.6001 82.5401 0.180176 62.4001 0.180176C42.2601 0.180176 25.8301 16.5901 25.8301 36.7501C25.8301 56.9101 42.2401 73.3002 62.4001 73.3002ZM62.4001 10.2001C77.0201 10.2001 88.9202 22.1101 88.9202 36.7401C88.9202 51.3701 77.0201 63.2601 62.4001 63.2601C47.7801 63.2601 35.8401 51.3601 35.8401 36.7401C35.8401 22.1201 47.7601 10.2001 62.4001 10.2001Z" fill="#939598"/>
<path d="M62.4001 82.5C62.4001 82.5 62.4001 82.5 62.3901 82.5C28.3101 82.51 0.580078 110.22 0.580078 144.29C0.580078 144.29 0.580117 145.46 1.62012 145.46H9.47009C10.6401 145.46 10.6301 144.29 10.6301 144.29C10.6301 115.76 33.8501 92.54 62.4001 92.54C90.9501 92.54 114.17 115.76 114.17 144.29C114.17 144.29 114.17 145.46 115.33 145.46H123.18C124.22 145.46 124.22 144.29 124.22 144.29C124.22 110.23 96.5002 82.52 62.4102 82.5H62.4001Z" fill="#939598"/>
</svg>
